<?xml version="1.0" encoding="UTF-8"?>
<svg id="Layer_1" xmlns="http://www.w3.org/2000/svg" version="1.1" viewBox="0 0 360 360">
  <!-- Generator: Adobe Illustrator 29.7.1, SVG Export Plug-In . SVG Version: 2.1.1 Build 8)  -->
  <defs>
    <style>
      .st0 {
        fill: #fff;
      }
    </style>
  </defs>
  <path class="st0" d="M219.5,106.14c-3.48-1.35-7.4.41-8.68,3.96-1.36,3.48.39,7.4,3.9,8.68l10.64,3.98c.74.27,1.55.41,2.35.41,2.76,0,5.31-1.68,6.33-4.37,1.36-3.48-.39-7.4-3.9-8.68l-10.64-3.98h0Z"/>
  <path class="st0" d="M21.85,234.28c-3.35,1.69-4.78,5.64-3.01,8.82,1.16,2.35,3.57,3.77,6.06,3.77,1,0,2.02-.2,2.96-.67,10.51-5.11,21.88-15.06,27.19-20.05,7.8,2.76,15.54,4.31,23.01,4.31,9.09,0,17.84-2.02,26.24-6.06,30.28-14.52,54.5-56.32,67.22-115.61.67.2,1.49.41,2.22.41,1.75,0,3.44-.67,4.78-2.02,2.63-2.63,2.55-6.87-.06-9.49-20.13-19.84-19.72-40.31-17.9-50.27,2.49,1.16,5.58,2.82,8.88,5.04.13.06.19.2.33.27,9.28,6.46,19.77,17.9,22.54,37.41.53,3.65,3.98,6.26,7.6,5.73,2.49-.33,4.38-2.08,5.25-4.31,2.49.19,4.98.33,7.33.33,11.04,0,20.6-2.15,28.53-6.39l52.16,31.83c-9.62,9.89-25.17,30.74-22.48,60.42-21.65,10.51-41.45,9.43-60.42-3.62-2.35-1.61-5.51-1.55-7.8.14-2.35,1.68-3.29,4.64-2.49,7.4,17.28,56.74,16.68,102.64-1.69,136.27-1.75,3.29-.53,7.4,2.69,9.15,1,.53,2.16.8,3.23.8,2.41,0,4.7-1.28,5.91-3.51,18.44-33.76,20.79-77.79,7.13-131.09,18.91,7.95,38.9,6.8,59.62-3.35,9.01,5.64,19.84,7.66,30.34,5.58,11.72-2.29,21.88-9.42,27.93-19.66,11.64-19.59,5.31-45.3-14.19-57.21l-68.47-41.78c12.24-12.86,12.99-29.14,12.99-29.87.08-2.22-1-4.45-2.88-5.73-1.88-1.28-4.31-1.61-6.39-.74l-9.89,3.98c-8.26,3.35-17.35,3.29-25.57-.14l-16.15-6.73c-10.28-4.31-21.73-3.71-31.2,1.56-8.29-4.9-14.99-6.66-15.68-6.86-3.23-.83-6.6.8-7.87,3.9-.34.83-4.85,12.11-3.16,27.66l-2.16,2.16-27.93,7.47c-2.29.61-3.98,2.29-4.71,4.51-.74,2.21-.2,4.64,1.28,6.39l3.77,4.45-18.11,10.15c-1.82,1-3.02,2.82-3.35,4.84-.33,2.08.33,4.17,1.75,5.64l1.55,1.61-12.71,6.93c-1.96,1-3.23,2.95-3.51,5.11s.61,4.31,2.22,5.79l2.88,2.55-19.18,10.7c-3.16,1.82-4.38,5.79-2.69,9.02l3.09,5.91-22.81,24.02c-1.4,1.49-2.08,3.44-1.82,5.45.2,1.96,1.35,3.77,3.02,4.84l4.37,2.82-12.64,15.95c-1.28,1.55-1.75,3.57-1.35,5.51.39,1.96,1.61,3.62,3.35,4.57.13.08.19.08.33.14-5.38,4.65-12.77,10.51-19.51,13.8h0v.04ZM284.3,178.63c-3.35-28.06,13.27-47.03,20.67-53.92l8.95,5.45c13.25,8.07,17.55,25.5,9.62,38.83-4.1,6.93-10.98,11.84-18.91,13.39-7,1.42-14.27-.06-20.33-3.77h0ZM203.28,77.95c-3.71-12.77-10.22-22.21-17.35-29.09,4.51-.86,9.15-.66,13.46,1.16l16.15,6.73c10.78,4.51,22.62,4.84,33.59,1.07-1.75,4.1-4.57,8.68-9.09,12.38-8.42,6.94-20.8,9.49-36.75,7.74h-.01ZM55.78,212.4c-.41-.13-.74-.27-1.07-.39l12.05-15.15c1.13-1.49,1.68-3.38,1.35-5.25-.27-1.88-1.36-3.57-2.96-4.57l-3.91-2.55,20.6-21.6c1.94-2.1,2.41-5.18,1.07-7.74l-2.29-4.37,21.73-12.11c1.96-1,3.16-2.95,3.44-5.11.2-2.22-.61-4.31-2.22-5.79l-2.82-2.49,11.97-6.53c1.83-1,3.11-2.76,3.44-4.84.33-2.02-.33-4.1-1.75-5.64l-1.61-1.75,17.76-9.95c1.82-1,3.02-2.76,3.35-4.71.39-1.96-.2-3.98-1.49-5.51l-2.15-2.49,19.44-5.18c.06-.08.2-.14.27-.14,2.16,6,5.38,12.25,10.09,18.64-6.75,35.72-17.43,65.06-30.89,85.8-9.11,14.03-19.48,24.12-30.75,29.54-12.97,6.26-27.32,6.2-42.66-.06h0v-.03Z"/>
</svg>