<?xml version="1.0" encoding="UTF-8"?>
<svg id="Layer_1" xmlns="http://www.w3.org/2000/svg" version="1.1" viewBox="0 0 360 360">
  <!-- Generator: Adobe Illustrator 29.7.1, SVG Export Plug-In . SVG Version: 2.1.1 Build 8)  -->
  <defs>
    <style>
      .st0 {
        fill: #ace081;
      }
    </style>
  </defs>
  <path class="st0" d="M211.44,126.35c-2.74-1.06-5.82.32-6.83,3.12-1.07,2.74.31,5.82,3.07,6.83l8.37,3.13c.58.21,1.22.32,1.85.32,2.17,0,4.18-1.32,4.98-3.44,1.07-2.74-.31-5.82-3.07-6.83l-8.37-3.13h0Z"/>
  <path class="st0" d="M55.9,227.19c-2.64,1.33-3.76,4.44-2.37,6.94.91,1.85,2.81,2.97,4.77,2.97.79,0,1.59-.16,2.33-.53,8.27-4.02,17.22-11.85,21.4-15.78,6.14,2.17,12.23,3.39,18.11,3.39,7.15,0,14.04-1.59,20.65-4.77,23.83-11.43,42.89-44.32,52.9-90.98.53.16,1.17.32,1.75.32,1.38,0,2.71-.53,3.76-1.59,2.07-2.07,2.01-5.41-.05-7.47-15.84-15.61-15.52-31.72-14.09-39.56,1.96.91,4.39,2.22,6.99,3.97.1.05.15.16.26.21,7.3,5.08,15.56,14.09,17.74,29.44.42,2.87,3.13,4.93,5.98,4.51,1.96-.26,3.45-1.64,4.13-3.39,1.96.15,3.92.26,5.77.26,8.69,0,16.21-1.69,22.45-5.03l41.05,25.05c-7.57,7.78-19.81,24.19-17.69,47.55-17.04,8.27-32.62,7.42-47.55-2.85-1.85-1.27-4.34-1.22-6.14.11-1.85,1.32-2.59,3.65-1.96,5.82,13.6,44.65,13.13,80.77-1.33,107.24-1.38,2.59-.42,5.82,2.12,7.2.79.42,1.7.63,2.54.63,1.9,0,3.7-1.01,4.65-2.76,14.51-26.57,16.36-61.22,5.61-103.16,14.88,6.26,30.61,5.35,46.92-2.64,7.09,4.44,15.61,6.03,23.88,4.39,9.22-1.8,17.22-7.41,21.98-15.47,9.16-15.42,4.18-35.65-11.17-45.02l-53.88-32.88c9.63-10.12,10.22-22.93,10.22-23.51.06-1.75-.79-3.5-2.27-4.51-1.48-1.01-3.39-1.27-5.03-.58l-7.78,3.13c-6.5,2.64-13.65,2.59-20.12-.11l-12.71-5.3c-8.09-3.39-17.1-2.92-24.55,1.23-6.52-3.86-11.8-5.24-12.34-5.4-2.54-.65-5.19.63-6.19,3.07-.27.65-3.82,9.53-2.49,21.77l-1.7,1.7-21.98,5.88c-1.8.48-3.13,1.8-3.71,3.55-.58,1.74-.16,3.65,1.01,5.03l2.97,3.5-14.25,7.99c-1.43.79-2.38,2.22-2.64,3.81-.26,1.64.26,3.28,1.38,4.44l1.22,1.27-10,5.45c-1.54.79-2.54,2.32-2.76,4.02s.48,3.39,1.75,4.56l2.27,2.01-15.09,8.42c-2.49,1.43-3.45,4.56-2.12,7.1l2.43,4.65-17.95,18.9c-1.1,1.17-1.64,2.71-1.43,4.29.16,1.54,1.06,2.97,2.38,3.81l3.44,2.22-9.95,12.55c-1.01,1.22-1.38,2.81-1.06,4.34.31,1.54,1.27,2.85,2.64,3.6.1.06.15.06.26.11-4.23,3.66-10.05,8.27-15.35,10.86h0v.03h0ZM262.44,183.39c-2.64-22.08,10.44-37.01,16.27-42.43l7.04,4.29c10.43,6.35,13.81,20.07,7.57,30.56-3.23,5.45-8.64,9.32-14.88,10.54-5.51,1.12-11.23-.05-16-2.97h0ZM198.68,104.16c-2.92-10.05-8.04-17.48-13.65-22.89,3.55-.68,7.2-.52,10.59.91l12.71,5.3c8.48,3.55,17.8,3.81,26.43.84-1.38,3.23-3.6,6.83-7.15,9.74-6.63,5.46-16.37,7.47-28.92,6.09h-.01ZM82.6,209.97c-.32-.1-.58-.21-.84-.31l9.48-11.92c.89-1.17,1.32-2.66,1.06-4.13-.21-1.48-1.07-2.81-2.33-3.6l-3.08-2.01,16.21-17c1.53-1.65,1.9-4.08.84-6.09l-1.8-3.44,17.1-9.53c1.54-.79,2.49-2.32,2.71-4.02.16-1.75-.48-3.39-1.75-4.56l-2.22-1.96,9.42-5.14c1.44-.79,2.45-2.17,2.71-3.81.26-1.59-.26-3.23-1.38-4.44l-1.27-1.38,13.98-7.83c1.43-.79,2.38-2.17,2.64-3.71.31-1.54-.16-3.13-1.17-4.34l-1.69-1.96,15.3-4.08c.05-.06.16-.11.21-.11,1.7,4.72,4.23,9.64,7.94,14.67-5.31,28.11-13.72,51.2-24.31,67.52-7.17,11.04-15.33,18.98-24.2,23.25-10.21,4.93-21.5,4.88-33.57-.05h0v-.02h0Z"/>
</svg>